<?xml version="1.0" encoding="utf-8"?>
<!-- Generator: Adobe Illustrator 29.7.0, SVG Export Plug-In . SVG Version: 9.03 Build 0)  -->
<svg version="1.0" id="Calque_1" xmlns="http://www.w3.org/2000/svg" xmlns:xlink="http://www.w3.org/1999/xlink" x="0px" y="0px"
	 viewBox="0 0 167.4 25.4" style="enable-background:new 0 0 167.4 25.4;" xml:space="preserve">
<style type="text/css">
	.st0{fill:#1A1818;}
</style>
<g>
	<path class="st0" d="M152.7,21c0.9,2.8,3.9,4.4,7.7,4.4c3.8,0,7.1-2.1,7.1-5.6c0-2.7-1.9-4.5-5-5.3l-2.1-0.5
		c-0.9-0.3-1.4-0.6-1.4-1.1c0-0.5,0.5-0.8,1.2-0.8c0.9,0,1.7,0.4,2.1,1.2l4.2-1.9c-0.9-2.3-3.4-3.5-6.4-3.5c-3.5,0-6.6,1.9-6.6,5.1
		c0,2.5,1.5,4.2,4.6,5.1l2.1,0.6c0.9,0.3,1.6,0.7,1.6,1.4c0,0.7-0.7,1.1-1.6,1.1c-1.5,0-2.5-0.7-3.2-2L152.7,21z M136.4,21
		c0.9,2.8,3.9,4.4,7.7,4.4c3.8,0,7.1-2.1,7.1-5.6c0-2.7-1.9-4.5-5-5.3l-2.1-0.5c-0.9-0.3-1.4-0.6-1.4-1.1c0-0.5,0.5-0.8,1.2-0.8
		c0.9,0,1.7,0.4,2.1,1.2l4.2-1.9c-0.9-2.3-3.4-3.5-6.4-3.5c-3.5,0-6.6,1.9-6.6,5.1c0,2.5,1.5,4.2,4.6,5.1l2.1,0.6
		c0.9,0.3,1.6,0.7,1.6,1.4c0,0.7-0.7,1.1-1.6,1.1c-1.5,0-2.5-0.7-3.2-2L136.4,21z M128.4,24.8h5.5V8.4h-5.5V24.8z M127.8,3.3
		c0,1.8,1.4,3.1,3.3,3.1c1.9,0,3.3-1.3,3.3-3.1c0-1.8-1.4-3.1-3.3-3.1C129.2,0.1,127.8,1.5,127.8,3.3 M108.4,24.8h5.5v-7.1h2.1
		l3.9,7.1h6.3l-5.3-9.3l4.7-7.2h-6.1l-5.5,9.1V0h-5.5V24.8z M93.3,16.6c0,2.3-1.5,4-3.8,4c-2.3,0-3.7-1.7-3.7-4
		c0-2.3,1.4-3.9,3.7-3.9C91.8,12.7,93.3,14.3,93.3,16.6 M80.4,16.6c0,5.1,3.8,8.8,9.1,8.8c5.3,0,9.1-3.7,9.1-8.8
		c0-5.1-3.8-8.7-9.1-8.7C84.2,7.8,80.4,11.5,80.4,16.6 M72,24.8h5.5V8.4H72V24.8z M71.5,3.3c0,1.8,1.4,3.1,3.3,3.1S78,5.1,78,3.3
		c0-1.8-1.4-3.1-3.3-3.1S71.5,1.5,71.5,3.3 M62.9,16.6c0,2.3-1.4,3.9-3.7,3.9c-2.3,0-3.7-1.6-3.7-3.9c0-2.2,1.4-3.8,3.7-3.8
		C61.5,12.7,62.9,14.4,62.9,16.6 M50,16.6c0,4.8,3.1,8.7,7.8,8.7c1.9,0,3.8-0.6,5-1.9v1.5h5.5V0h-5.5v9.6c-1.1-1.1-3-1.7-5-1.7
		C53,8,50,11.7,50,16.6 M41.8,17.7c0,1.7-1,2.8-2.7,2.8c-1.7,0-2.7-1.1-2.7-2.8V8.4h-5.5v9.8c0,4.5,3.6,7.2,8.2,7.2
		c4.7,0,8.2-2.7,8.2-7.2V8.4h-5.5V17.7z M24.4,3.3h-3.2l-6,9.8h3.7v11.8h5.5V13.1H29V8.4h-4.6V3.3z M0,21c0.9,2.8,3.9,4.4,7.7,4.4
		c3.8,0,7.1-2.1,7.1-5.6c0-2.7-1.9-4.5-5-5.3l-2.1-0.5c-0.9-0.3-1.4-0.6-1.4-1.1c0-0.5,0.5-0.8,1.2-0.8c0.9,0,1.7,0.4,2.1,1.2
		l4.2-1.9C12.9,9,10.4,7.9,7.4,7.9c-3.5,0-6.6,1.9-6.6,5.1c0,2.5,1.5,4.2,4.6,5.1l2.1,0.6c0.9,0.3,1.6,0.7,1.6,1.4
		c0,0.7-0.7,1.1-1.6,1.1c-1.5,0-2.5-0.7-3.2-2L0,21z"/>
</g>
<g>
</g>
<g>
</g>
<g>
</g>
<g>
</g>
<g>
</g>
<g>
</g>
</svg>
