<?xml version="1.0" encoding="UTF-8"?>
<svg id="Calque_1" xmlns="http://www.w3.org/2000/svg" version="1.1" viewBox="0 0 62.8 24">
  <!-- Generator: Adobe Illustrator 29.7.0, SVG Export Plug-In . SVG Version: 2.1.1 Build 138)  -->
  <defs>
    <style>
      .st0 {
        fill: #1a1818;
      }
    </style>
  </defs>
  <path class="st0" d="M22.6,2.2c0-1.3,1-2.2,2.3-2.2s2.3.9,2.3,2.2-1,2.2-2.3,2.2-2.3-.9-2.3-2.2"/>
  <polygon class="st0" points="10 7 4.1 16 4.1 7 0 7 0 23.7 4.1 23.7 4.1 16.8 6.1 16.8 10.3 23.7 15.1 23.7 9.5 14.7 14.6 7 10 7"/>
  <g>
    <path class="st0" d="M32.6,19.7l3.5-1.7c.4,1.4,1.7,2.3,3.1,2.3,1.3,0,2.5-.5,2.5-1.8,0-1.1-.9-1.5-2.3-1.9l-1.9-.5c-2.5-.7-4-2.2-4-4.8,0-3,2.7-4.8,5.7-4.8,2.3,0,4.6,1.1,5.4,3.3l-3.3,1.6c-.4-.9-1.1-1.4-2.1-1.4-.8,0-1.6.4-1.6,1.2,0,.8.8,1.2,1.8,1.5l1.8.5c2.7.8,4.6,2.4,4.5,5.2,0,3.5-3.1,5.5-6.6,5.5-2.9,0-5.8-1.6-6.6-4.3"/>
    <path class="st0" d="M49.6,19.8l3.5-1.7c.5,1.4,1.7,2.3,3.2,2.3s2.5-.5,2.5-1.8-1-1.5-2.3-1.9l-1.9-.5c-2.5-.7-4-2.2-4-4.7s2.6-4.9,5.7-4.9,4.6,1.1,5.4,3.3l-3.3,1.6c-.4-.9-1.1-1.4-2.1-1.4s-1.6.4-1.6,1.2.8,1.2,1.8,1.5l1.8.5c2.7.7,4.6,2.3,4.6,5.1s-3.1,5.6-6.6,5.6-5.8-1.5-6.6-4.2"/>
  </g>
</svg>